<?xml version="1.0" encoding="utf-8"?>
<svg viewBox="61.1 180.15 377.8 139.718" xmlns="http://www.w3.org/2000/svg">
  <path d="M 431.911 245.181 C 435.753 245.181 438.9 247.133 438.9 249.518 L 438.9 264.294 C 438.9 266.679 435.753 268.631 431.911 268.631 C 428.065 268.631 424.921 266.679 424.921 264.294 L 424.921 249.518 C 424.921 247.133 428.065 245.181 431.911 245.181 Z" style="fill:#b1b3b4;fill-rule:evenodd" id="path48"/>
  <path d="M 404.135 250.955 C 407.981 250.955 411.124 252.907 411.124 255.292 L 411.124 287.82 C 411.124 290.205 407.981 292.157 404.135 292.157 C 400.293 292.157 397.146 290.205 397.146 287.82 L 397.146 255.292 C 397.146 252.907 400.293 250.955 404.135 250.955 Z" style="fill:#b1b3b4;fill-rule:evenodd" id="path50"/>
  <path d="M 376.363 257.688 C 380.205 257.688 383.352 259.64 383.352 262.025 L 383.352 298.587 C 383.352 300.972 380.205 302.924 376.363 302.924 C 372.517 302.924 369.37 300.972 369.37 298.587 L 369.37 262.025 C 369.37 259.639 372.517 257.688 376.363 257.688 Z" style="fill:#b1b3b4;fill-rule:evenodd" id="path52"/>
  <path d="M 348.587 263.26 C 352.433 263.26 355.576 265.212 355.576 267.597 L 355.576 303.756 C 355.576 306.141 352.433 308.093 348.587 308.093 C 344.745 308.093 341.598 306.141 341.598 303.756 L 341.598 267.597 C 341.598 265.212 344.745 263.26 348.587 263.26 Z" style="fill:#b1b3b4;fill-rule:evenodd" id="path54"/>
  <path d="M 320.811 268.177 C 324.657 268.177 327.8 270.129 327.8 272.514 L 327.8 303.832 C 327.8 306.217 324.657 308.169 320.811 308.169 C 316.969 308.169 313.822 306.217 313.822 303.832 L 313.822 272.514 C 313.822 270.129 316.969 268.177 320.811 268.177 Z" style="fill:#b1b3b4;fill-rule:evenodd" id="path56"/>
  <path d="M 293.179 288.148 C 297.025 288.148 300.168 290.1 300.168 292.485 L 300.168 302.42 C 300.168 304.804 297.021 306.756 293.179 306.756 C 289.337 306.756 286.189 304.805 286.189 302.42 L 286.189 292.485 C 286.189 290.099 289.333 288.148 293.179 288.148 Z" style="fill:#b1b3b4;fill-rule:evenodd" id="path58"/>
  <path d="M 431.911 205.441 C 435.753 205.441 438.9 207.393 438.9 209.778 L 438.9 234.237 C 438.9 236.622 435.753 238.574 431.911 238.574 C 428.065 238.574 424.921 236.622 424.921 234.237 L 424.921 209.778 C 424.921 207.393 428.065 205.441 431.911 205.441 Z" style="fill:#000000;fill-rule:evenodd" id="path60"/>
  <path d="M 404.135 189.026 C 407.981 189.026 411.124 190.978 411.124 193.363 L 411.124 236.985 C 411.124 239.37 407.981 241.322 404.135 241.322 C 400.293 241.322 397.146 239.371 397.146 236.985 L 397.146 193.363 C 397.146 190.978 400.293 189.026 404.135 189.026 Z" style="fill:#000000;fill-rule:evenodd" id="path62"/>
  <path d="M 376.363 182.848 C 380.205 182.848 383.352 184.801 383.352 187.185 L 383.352 244.122 C 383.352 246.506 380.205 248.459 376.363 248.459 C 372.517 248.459 369.37 246.507 369.37 244.122 L 369.37 187.185 C 369.37 184.8 372.517 182.848 376.363 182.848 Z" style="fill:#000000;fill-rule:evenodd" id="path64"/>
  <path d="M 348.587 180.15 C 352.433 180.15 355.576 182.102 355.576 184.487 L 355.576 251.106 C 355.576 253.491 352.433 255.443 348.587 255.443 C 344.745 255.443 341.598 253.491 341.598 251.106 L 341.598 184.487 C 341.598 182.102 344.745 180.15 348.587 180.15 Z" style="fill:#000000;fill-rule:evenodd" id="path66"/>
  <path d="M 320.811 181.84 C 324.657 181.84 327.8 183.792 327.8 186.177 L 327.8 253.804 C 327.8 256.189 324.657 258.141 320.811 258.141 C 316.969 258.141 313.822 256.19 313.822 253.804 L 313.822 186.177 C 313.822 183.791 316.969 181.84 320.811 181.84 Z" style="fill:#000000;fill-rule:evenodd" id="path68"/>
  <path d="M 293.179 186.076 C 297.025 186.076 300.168 188.028 300.168 190.413 L 300.168 274.783 C 300.168 277.168 297.021 279.12 293.179 279.12 C 289.337 279.12 286.189 277.169 286.189 274.783 L 286.189 190.413 C 286.189 188.027 289.333 186.076 293.179 186.076 Z" style="fill:#000000;fill-rule:evenodd" id="path70"/>
  <path d="M 264.829 193.262 C 268.675 193.262 271.818 195.215 271.818 197.599 L 271.818 293.266 C 271.818 295.651 268.675 297.603 264.829 297.603 C 260.986 297.603 257.839 295.652 257.839 293.266 L 257.839 197.599 C 257.839 195.214 260.986 193.262 264.829 193.262 Z" style="fill:#000000;fill-rule:evenodd" id="path72"/>
  <path d="M 237.057 205.441 C 240.899 205.441 244.046 207.394 244.046 209.778 L 244.046 301.814 C 244.046 304.199 240.899 306.151 237.057 306.151 C 233.211 306.151 230.067 304.2 230.067 301.814 L 230.067 209.778 C 230.067 207.393 233.211 205.441 237.057 205.441 Z" style="fill:#000000;fill-rule:evenodd" id="path74"/>
  <path d="M 209.281 221.302 C 213.127 221.302 216.27 223.254 216.27 225.639 L 216.27 305.773 C 216.27 308.158 213.123 310.11 209.281 310.11 C 205.439 310.11 202.291 308.158 202.291 305.773 L 202.291 225.639 C 202.291 223.253 205.435 221.302 209.281 221.302 Z" style="fill:#000000;fill-rule:evenodd" id="path76"/>
  <path d="M 181.505 232.271 C 185.351 232.271 188.498 234.223 188.498 236.607 L 188.498 315.531 C 188.498 317.916 185.351 319.868 181.505 319.868 C 177.663 319.868 174.516 317.917 174.516 315.531 L 174.516 236.607 C 174.516 234.222 177.663 232.271 181.505 232.271 Z" style="fill:#000000;fill-rule:evenodd" id="path78"/>
  <path d="M 153.873 241.348 C 157.719 241.348 160.862 243.301 160.862 245.685 L 160.862 287.694 C 160.862 290.078 157.715 292.031 153.873 292.031 C 150.03 292.031 146.883 290.079 146.883 287.694 L 146.883 245.685 C 146.883 243.3 150.03 241.348 153.873 241.348 Z" style="fill:#000000;fill-rule:evenodd" id="path80"/>
  <path d="M 125.266 200.398 C 129.108 200.398 132.255 202.351 132.255 204.735 L 132.255 263.285 C 132.255 265.669 129.108 267.622 125.266 267.622 C 121.423 267.622 118.276 265.671 118.276 263.285 L 118.276 204.735 C 118.276 202.35 121.42 200.398 125.266 200.398 Z" style="fill:#000000;fill-rule:evenodd" id="path82"/>
  <path d="M 96.7 204.231 C 100.542 204.231 103.689 206.184 103.689 208.568 L 103.689 226.572 C 103.689 228.956 100.542 230.909 96.7 230.909 C 92.858 230.909 89.711 228.957 89.711 226.572 L 89.711 208.568 C 89.711 206.183 92.854 204.231 96.7 204.231 Z" style="fill:#000000;fill-rule:evenodd" id="path84"/>
  <path d="M 68.089 201.81 C 71.935 201.81 75.079 203.763 75.079 206.147 L 75.079 214.267 C 75.079 216.651 71.932 218.603 68.089 218.603 C 64.247 218.603 61.1 216.652 61.1 214.267 L 61.1 206.147 C 61.1 203.762 64.243 201.81 68.089 201.81 Z" style="fill:#000000;fill-rule:evenodd" id="path86"/>
  <path d="M 153.873 194.94 C 157.719 194.94 160.862 196.893 160.862 199.277 L 160.862 205.379 C 160.862 207.763 157.715 209.716 153.873 209.716 C 150.03 209.716 146.883 207.764 146.883 205.379 L 146.883 199.277 C 146.883 196.892 150.03 194.94 153.873 194.94 Z" style="fill:#000000;fill-rule:evenodd" id="path88"/>
</svg>